{"title":"Law.and.Order.SVU.S17E10.WEB-DL.x264-RARBG","uid":13174138,"size":267623080,"categoryP":"video","categoryS":"tv_shows","magnet":"?xt=urn:btih:3fe5525cf3e3c4765d2113f959dd2a816528818c&amp;dn=Law.and.Order.SVU.S17E10.WEB-DL.x264-RARBG&amp;tr=udp%3A%2F%2Ftracker.leechers-paradise.org%3A6969&amp;tr=udp%3A%2F%2Fzer0day.ch%3A1337&amp;tr=udp%3A%2F%2Fopen.demonii.com%3A1337&amp;tr=udp%3A%2F%2Ftracker.coppersurfer.tk%3A6969&amp;tr=udp%3A%2F%2Fexodus.desync.com%3A6969","seeders":0,"leechers":0,"uploader":null,"files":5,"time":1452271140,"description":"Video\r\nID                                       : 1\r\nFormat                                   : AVC\r\nFormat/Info                              : Advanced Video Codec\r\nFormat profile                           :   \r\nFormat settings, CABAC                   : Yes\r\nFormat settings, ReFrames                : 5 frames\r\nCodec ID                                 : avc1\r\nCodec ID/Info                            : Advanced Video Coding\r\nDuration                                 : 41mn 15s\r\nBit rate                                 : 728 Kbps\r\nWidth                                    : 720 pixels\r\nHeight                                   : 400 pixels\r\nDisplay aspect ratio                     : 16:9\r\nFrame rate mode                          : Constant\r\nFrame rate                               : 23.976 (24000/1001) fps\r\nColor space                              : YUV\r\nChroma subsampling                       : 4:2:0\r\nBit depth                                : 8 bits\r\nScan type                                : Progressive\r\nBits/(Pixel*Frame)                       : 0.105\r\nStream size                              : 215 MiB (84%)\r\nTitle                                    : RARBG.COM - Law.and.Order.SVU.S17E10.WEB-DL.x264-RARBG\r\nWriting library                          : x264 core 148 r2597M e86f3a1\r\nEncoding settings                        : cabac=1 / ref=5 / deblock=1:-1:-1 / analyse=0x3:0x113 / me=umh / subme=9 / psy=1 / psy_rd=1.00:0.15 / mixed_ref=1 / me_range=16 / chroma_me=1 / trellis=2 / 8x8dct=1 / cqm=0 / deadzone=21,11 / fast_pskip=1 / chroma_qp_offset=-3 / threads=12 / lookahead_threads=1 / sliced_threads=0 / nr=0 / decimate=1 / interlaced=0 / bluray_compat=0 / constrained_intra=0 / bframes=3 / b_pyramid=2 / b_adapt=2 / b_bias=0 / direct=3 / weightb=1 / open_gop=0 / weightp=2 / keyint=250 / keyint_min=23 / scenecut=40 / intra_refresh=0 / rc_lookahead=50 / rc=crf / mbtree=1 / crf=19.0 / qcomp=0.60 / qpmin=0 / qpmax=69 / qpstep=4 / ip_ratio=1.40 / aq=1:1.00\r\nLanguage                                 : English\r\nEncoded date                             : UTC 2016-01-07 09:48:30\r\nTagged date                              : UTC 2016-01-07 09:48:30\r\n\r\nAudio\r\nID                                       : 2\r\nFormat                                   : AAC\r\nFormat/Info                              : Advanced Audio Codec\r\nFormat profile                           : LC\r\nCodec ID                                 : 40\r\nDuration                                 : 41mn 15s\r\nBit rate mode                            : Constant\r\nBit rate                                 : 128 Kbps\r\nChannel(s)                               : 2 channels\r\nChannel positions                        : Front: L R\r\nSampling rate                            : 48.0 KHz\r\nFrame rate                               : 46.875 fps (1024 spf)\r\nCompression mode                         : Lossy\r\nStream size                              : 37.8 MiB (15%)\r\nTitle                                    : RARBG.COM - Law.and.Order.SVU.S17E10.WEB-DL.x264-RARBG\r\nLanguage                                 : English\r\nDefault                                  : Yes\r\nAlternate group                          : 1\r\nEncoded date                             : UTC 2016-01-07 09:48:30\r\nTagged date                              : UTC 2016-01-07 09:48:30","torrent":{"xt":"urn:btih:3fe5525cf3e3c4765d2113f959dd2a816528818c","amp;dn":"Law.and.Order.SVU.S17E10.WEB-DL.x264-RARBG","amp;tr":["udp%3A%2F%2Ftracker.leechers-paradise.org%3A6969","udp%3A%2F%2Fzer0day.ch%3A1337","udp%3A%2F%2Fopen.demonii.com%3A1337","udp%3A%2F%2Ftracker.coppersurfer.tk%3A6969","udp%3A%2F%2Fexodus.desync.com%3A6969"],"infoHash":"3fe5525cf3e3c4765d2113f959dd2a816528818c","infoHashBuffer":{"type":"Buffer","data":[63,229,82,92,243,227,196,118,93,33,19,249,89,221,42,129,101,40,129,140]},"announce":[],"urlList":[]}}